<?xml version="1.0" encoding="iso-8859-1"?>
<!-- Uploaded to: SVG Repo, www.svgrepo.com, Generator: SVG Repo Mixer Tools -->

<svg width="21" height="20" viewBox="0 0 21 20" fill="none"><path d="M3.69238 10.4375C3.69238 9.71263 4.28001 9.125 5.00488 9.125C5.72976 9.125 6.31738 9.71263 6.31738 10.4375V15.6875C6.31738 16.4124 5.72976 17 5.00488 17C4.28001 17 3.69238 16.4124 3.69238 15.6875V10.4375Z" fill="#16A34A"></path><path d="M7.19238 10.2917V15.0434C7.19238 15.7063 7.56689 16.3123 8.15976 16.6087L8.20337 16.6305C8.68937 16.8735 9.22526 17 9.76862 17H14.5077C15.3419 17 16.0601 16.4112 16.2237 15.5932L17.2737 10.3432C17.4903 9.26032 16.6621 8.25 15.5577 8.25H12.4424V4.75C12.4424 3.7835 11.6589 3 10.6924 3C10.2091 3 9.81738 3.39175 9.81738 3.875V4.45833C9.81738 5.21563 9.57176 5.9525 9.11738 6.55833L7.89238 8.19167C7.43801 8.7975 7.19238 9.53437 7.19238 10.2917Z" fill="#16A34A"></path></svg>