<?xml version="1.0" encoding="iso-8859-1"?>
<!-- Uploaded to: SVG Repo, www.svgrepo.com, Generator: SVG Repo Mixer Tools -->

<svg width="21" height="20" viewBox="0 0 21 20" fill="none"><path d="M17.3083 9.5625C17.3083 10.2874 16.7207 10.875 15.9958 10.875C15.2709 10.875 14.6833 10.2874 14.6833 9.5625V4.3125C14.6833 3.58763 15.2709 3 15.9958 3C16.7207 3 17.3083 3.58763 17.3083 4.3125V9.5625Z" fill="#DC2626"></path><path d="M13.8083 9.70833V4.95656C13.8083 4.29371 13.4338 3.68775 12.8409 3.39131L12.7973 3.3695C12.3113 3.12651 11.7754 3 11.2321 3L6.49298 3C5.65879 3 4.94056 3.5888 4.77696 4.4068L3.72696 9.6568C3.51038 10.7397 4.33865 11.75 5.44298 11.75H8.55832V15.25C8.55832 16.2165 9.34182 17 10.3083 17C10.7916 17 11.1833 16.6082 11.1833 16.125V15.5417C11.1833 14.7844 11.4289 14.0475 11.8833 13.4417L13.1083 11.8083C13.5627 11.2025 13.8083 10.4656 13.8083 9.70833Z" fill="#DC2626"></path></svg>