<svg xmlns="http://www.w3.org/2000/svg" width="currentWidth" height="currentHeight" viewBox="0 0 20 20" fill="none">
  <path d="M7.11956 8.09317C7.11956 5.60254 9.59056 4.46819 11.41 5.36853C12.5593 5.93725 13.26 7.30009 13.0294 8.41579C12.8581 9.24476 12.4996 9.72966 11.7763 10.3211L11.4973 10.5424C10.791 11.0964 10.5927 11.3836 10.5927 12.0489C10.5927 12.3713 10.3313 12.6326 10.0089 12.6326C9.68653 12.6326 9.42516 12.3713 9.42516 12.0489C9.42516 11.0017 9.77624 10.4383 10.6297 9.7413L10.905 9.52313C11.5325 9.02974 11.772 8.73156 11.8861 8.17946C12.0071 7.59409 11.5743 6.75251 10.8922 6.41495C9.78568 5.8674 8.28709 6.55535 8.28709 8.09317C8.28709 8.41558 8.02573 8.67694 7.70332 8.67694C7.38092 8.67694 7.11956 8.41558 7.11956 8.09317Z" fill="#697586"/>
  <path d="M10.7681 14.227C10.7681 14.62 10.4496 14.9385 10.0566 14.9385C9.66369 14.9385 9.34516 14.62 9.34516 14.227C9.34516 13.8341 9.66369 13.5156 10.0566 13.5156C10.4496 13.5156 10.7681 13.8341 10.7681 14.227Z" fill="#697586"/>
  <path fill-rule="evenodd" clip-rule="evenodd" d="M10.0002 1.11133C5.09102 1.11133 1.11133 5.09102 1.11133 10.0002C1.11133 14.9094 5.09102 18.8891 10.0002 18.8891C14.9094 18.8891 18.8891 14.9094 18.8891 10.0002C18.8891 5.09102 14.9094 1.11133 10.0002 1.11133ZM10.0002 2.4282C14.1821 2.4282 17.5722 5.81831 17.5722 10.0002C17.5722 14.1821 14.1821 17.5722 10.0002 17.5722C5.81831 17.5722 2.4282 14.1821 2.4282 10.0002C2.4282 5.81831 5.81831 2.4282 10.0002 2.4282Z" fill="#697586"/>
</svg>